<svg width="16" height="17" viewBox="0 0 16 17" fill="none" xmlns="http://www.w3.org/2000/svg">
<path d="M1 10.777V16.5C1 16.6326 0.947321 16.7598 0.853553 16.8536C0.759785 16.9473 0.632608 17 0.5 17C0.367392 17 0.240215 16.9473 0.146447 16.8536C0.0526785 16.7598 0 16.6326 0 16.5V2C4.25504e-05 1.91766 0.0204201 1.8366 0.0593228 1.76403C0.0982256 1.69146 0.154449 1.62962 0.223 1.584C1.313 0.857 2.742 0.5 4.5 0.5C5.613 0.5 6.42 0.696 8.158 1.276C9.796 1.82 10.53 2 11.5 2C13.075 2 14.313 1.69 15.223 1.084C15.2983 1.0339 15.3858 1.00515 15.4761 1.00083C15.5664 0.996508 15.6563 1.01677 15.736 1.05946C15.8157 1.10215 15.8824 1.16566 15.9289 1.24324C15.9754 1.32082 16 1.40956 16 1.5V10C16 10.0823 15.9796 10.1634 15.9407 10.236C15.9018 10.3085 15.8456 10.3704 15.777 10.416C14.687 11.143 13.258 11.5 11.5 11.5C10.387 11.5 9.58 11.304 7.842 10.724C6.204 10.18 5.47 10 4.5 10C3.05 10 1.886 10.262 1 10.777ZM1 9.654C1.965 9.216 3.133 9 4.5 9C5.613 9 6.42 9.196 8.158 9.776C9.796 10.321 10.529 10.5 11.5 10.5C12.95 10.5 14.114 10.238 15 9.723V2.346C14.035 2.784 12.867 3 11.5 3C10.387 3 9.58 2.804 7.842 2.224C6.204 1.68 5.47 1.5 4.5 1.5C3.05 1.5 1.886 1.762 1 2.277V9.654Z" fill="black"/>
</svg>
