<svg width="16" height="16" viewBox="0 0 16 16" fill="none" xmlns="http://www.w3.org/2000/svg">
<path opacity="0.1" d="M6 10.5C6 11.0304 6.21071 11.5391 6.58579 11.9142C6.96086 12.2893 7.46957 12.5 8 12.5C8.53043 12.5 9.03914 12.2893 9.41421 11.9142C9.78929 11.5391 10 11.0304 10 10.5H15.5V14C15.5 14.3978 15.342 14.7794 15.0607 15.0607C14.7794 15.342 14.3978 15.5 14 15.5H2C1.60218 15.5 1.22064 15.342 0.93934 15.0607C0.658035 14.7794 0.5 14.3978 0.5 14V10.5H6Z" fill="black"/>
<path d="M4.062 1.21597e-07H11.938C12.384 6.76484e-05 12.8172 0.149204 13.1687 0.423705C13.5202 0.698207 13.7698 1.08232 13.878 1.515L15.94 9.761C15.9798 9.91961 15.9999 10.0825 16 10.246V14C16 14.5304 15.7893 15.0391 15.4142 15.4142C15.0391 15.7893 14.5304 16 14 16H2C1.46957 16 0.960859 15.7893 0.585786 15.4142C0.210714 15.0391 0 14.5304 0 14V10.246C9.90303e-05 10.0825 0.0202494 9.91961 0.0599999 9.761L2.12 1.515C2.22819 1.08216 2.47801 0.697916 2.82972 0.423397C3.18143 0.148878 3.61484 -0.000155401 4.061 1.21597e-07H4.062ZM4.062 1C3.83907 1.00001 3.62254 1.0745 3.44679 1.21166C3.27105 1.34881 3.14617 1.54075 3.092 1.757L1.03 10.004C1.01017 10.0831 1.00009 10.1644 1 10.246V14C1 14.2652 1.10536 14.5196 1.29289 14.7071C1.48043 14.8946 1.73478 15 2 15H14C14.2652 15 14.5196 14.8946 14.7071 14.7071C14.8946 14.5196 15 14.2652 15 14V10.246C14.9999 10.1644 14.9898 10.0831 14.97 10.004L12.91 1.757C12.8558 1.54075 12.731 1.34881 12.5552 1.21166C12.3795 1.0745 12.1629 1.00001 11.94 1H4.061H4.062ZM8 13.25C7.35725 13.2502 6.73473 13.0252 6.24058 12.6142C5.74643 12.2032 5.41186 11.632 5.295 11H3C2.86739 11 2.74021 10.9473 2.64645 10.8536C2.55268 10.7598 2.5 10.6326 2.5 10.5C2.5 10.3674 2.55268 10.2402 2.64645 10.1464C2.74021 10.0527 2.86739 10 3 10H5.75C5.88261 10 6.00979 10.0527 6.10355 10.1464C6.19732 10.2402 6.25 10.3674 6.25 10.5C6.25 10.9641 6.43437 11.4092 6.76256 11.7374C7.09075 12.0656 7.53587 12.25 8 12.25C8.46413 12.25 8.90925 12.0656 9.23744 11.7374C9.56563 11.4092 9.75 10.9641 9.75 10.5C9.75 10.3674 9.80268 10.2402 9.89645 10.1464C9.99021 10.0527 10.1174 10 10.25 10H13C13.1326 10 13.2598 10.0527 13.3536 10.1464C13.4473 10.2402 13.5 10.3674 13.5 10.5C13.5 10.6326 13.4473 10.7598 13.3536 10.8536C13.2598 10.9473 13.1326 11 13 11H10.705C10.5881 11.632 10.2536 12.2032 9.75942 12.6142C9.26527 13.0252 8.64275 13.2502 8 13.25V13.25Z" fill="black"/>
</svg>
