<svg width="17" height="17" viewBox="0 0 17 17" fill="none" xmlns="http://www.w3.org/2000/svg">
<path d="M0.913698 7.086L7.4137 0.586C7.78868 0.210901 8.29731 0.000113275 8.8277 0H14.9997C15.5301 0 16.0388 0.210714 16.4139 0.585786C16.789 0.960859 16.9997 1.46957 16.9997 2V8.172C16.9996 8.70239 16.7888 9.21101 16.4137 9.586L9.9137 16.086C9.53864 16.4609 9.03003 16.6716 8.4997 16.6716C7.96937 16.6716 7.46075 16.4609 7.0857 16.086L0.913698 9.914C0.538756 9.53894 0.328125 9.03033 0.328125 8.5C0.328125 7.96967 0.538756 7.46106 0.913698 7.086V7.086ZM1.6207 7.793C1.43323 7.98053 1.32791 8.23484 1.32791 8.5C1.32791 8.76516 1.43323 9.01947 1.6207 9.207L7.7927 15.379C7.98023 15.5665 8.23453 15.6718 8.4997 15.6718C8.76486 15.6718 9.01917 15.5665 9.2067 15.379L15.7067 8.879C15.8942 8.69151 15.9996 8.43719 15.9997 8.172V2C15.9997 1.73478 15.8943 1.48043 15.7068 1.29289C15.5193 1.10536 15.2649 1 14.9997 1H8.8277C8.5625 1.00006 8.30819 1.10545 8.1207 1.293L1.6207 7.793V7.793ZM11.7497 6.5C11.4182 6.5 11.1002 6.3683 10.8658 6.13388C10.6314 5.89946 10.4997 5.58152 10.4997 5.25C10.4997 4.91848 10.6314 4.60054 10.8658 4.36612C11.1002 4.1317 11.4182 4 11.7497 4C12.0812 4 12.3992 4.1317 12.6336 4.36612C12.868 4.60054 12.9997 4.91848 12.9997 5.25C12.9997 5.58152 12.868 5.89946 12.6336 6.13388C12.3992 6.3683 12.0812 6.5 11.7497 6.5Z" fill="black"/>
</svg>
