<svg width="10" height="10" viewBox="0 0 10 10" fill="none" xmlns="http://www.w3.org/2000/svg">
<path d="M8.5 0C8.89782 0 9.27936 0.158035 9.56066 0.43934C9.84196 0.720644 10 1.10218 10 1.5V8.5C10 8.89782 9.84196 9.27936 9.56066 9.56066C9.27936 9.84196 8.89782 10 8.5 10H1.5C1.10218 10 0.720644 9.84196 0.43934 9.56066C0.158035 9.27936 0 8.89782 0 8.5V1.5C0 1.10218 0.158035 0.720644 0.43934 0.43934C0.720644 0.158035 1.10218 0 1.5 0H8.5ZM8.5 1H1.5C1.36739 1 1.24021 1.05268 1.14645 1.14645C1.05268 1.24021 1 1.36739 1 1.5V8.5C1 8.63261 1.05268 8.75979 1.14645 8.85355C1.24021 8.94732 1.36739 9 1.5 9H8.5C8.63261 9 8.75979 8.94732 8.85355 8.85355C8.94732 8.75979 9 8.63261 9 8.5V1.5C9 1.36739 8.94732 1.24021 8.85355 1.14645C8.75979 1.05268 8.63261 1 8.5 1V1ZM7 6.25C7.19891 6.25 7.38968 6.32902 7.53033 6.46967C7.67098 6.61032 7.75 6.80109 7.75 7C7.75 7.19891 7.67098 7.38968 7.53033 7.53033C7.38968 7.67098 7.19891 7.75 7 7.75C6.80109 7.75 6.61032 7.67098 6.46967 7.53033C6.32902 7.38968 6.25 7.19891 6.25 7C6.25 6.80109 6.32902 6.61032 6.46967 6.46967C6.61032 6.32902 6.80109 6.25 7 6.25ZM7.5 3C7.63261 3 7.75979 3.05268 7.85355 3.14645C7.94732 3.24021 8 3.36739 8 3.5C8 3.63261 7.94732 3.75979 7.85355 3.85355C7.75979 3.94732 7.63261 4 7.5 4H2.5C2.36739 4 2.24021 3.94732 2.14645 3.85355C2.05268 3.75979 2 3.63261 2 3.5C2 3.36739 2.05268 3.24021 2.14645 3.14645C2.24021 3.05268 2.36739 3 2.5 3H7.5Z" fill="black"/>
</svg>
