<svg width="17" height="18" viewBox="0 0 17 18" fill="none" xmlns="http://www.w3.org/2000/svg">
<path fill-rule="evenodd" clip-rule="evenodd" d="M6.5 16H16.5C16.6326 16 16.7598 16.0527 16.8536 16.1464C16.9473 16.2402 17 16.3674 17 16.5C17 16.6326 16.9473 16.7598 16.8536 16.8536C16.7598 16.9473 16.6326 17 16.5 17H6.5C6.36739 17 6.24021 16.9473 6.14645 16.8536C6.05268 16.7598 6 16.6326 6 16.5C6 16.3674 6.05268 16.2402 6.14645 16.1464C6.24021 16.0527 6.36739 16 6.5 16Z" fill="black"/>
<path fill-rule="evenodd" clip-rule="evenodd" d="M1.42037 13.0301C1.17857 13.2722 1.02685 13.5898 0.990373 13.93L0.770373 15.9501C0.762499 16.0242 0.771312 16.0992 0.796168 16.1695C0.821024 16.2398 0.861293 16.3037 0.914025 16.3564C0.966757 16.4091 1.03062 16.4494 1.10093 16.4743C1.17124 16.4991 1.24622 16.5079 1.32037 16.5L3.34037 16.2901C3.68193 16.2509 3.99966 16.0955 4.24037 15.85L15.7004 4.40005C15.9813 4.1188 16.1391 3.73755 16.1391 3.34005C16.1391 2.94255 15.9813 2.5613 15.7004 2.28005L15.0004 1.58005C14.8609 1.43946 14.695 1.32787 14.5122 1.25171C14.3295 1.17556 14.1334 1.13635 13.9354 1.13635C13.7374 1.13635 13.5413 1.17556 13.3585 1.25171C13.1757 1.32787 13.0098 1.43946 12.8704 1.58005L1.42037 13.0201V13.0301Z" stroke="black"/>
</svg>
