<svg width="13" height="13" viewBox="0 0 13 13" fill="none" xmlns="http://www.w3.org/2000/svg">
<path fill-rule="evenodd" clip-rule="evenodd" d="M6 6V0.5C6 0.367392 6.05268 0.240215 6.14645 0.146447C6.24021 0.0526784 6.36739 0 6.5 0C6.63261 0 6.75979 0.0526784 6.85355 0.146447C6.94732 0.240215 7 0.367392 7 0.5V6H12.5C12.6326 6 12.7598 6.05268 12.8536 6.14645C12.9473 6.24021 13 6.36739 13 6.5C13 6.63261 12.9473 6.75979 12.8536 6.85355C12.7598 6.94732 12.6326 7 12.5 7H7V12.5C7 12.6326 6.94732 12.7598 6.85355 12.8536C6.75979 12.9473 6.63261 13 6.5 13C6.36739 13 6.24021 12.9473 6.14645 12.8536C6.05268 12.7598 6 12.6326 6 12.5V7H0.5C0.367392 7 0.240215 6.94732 0.146447 6.85355C0.0526784 6.75979 0 6.63261 0 6.5C0 6.36739 0.0526784 6.24021 0.146447 6.14645C0.240215 6.05268 0.367392 6 0.5 6H6Z" fill="black"/>
</svg>
