<svg width="16" height="16" viewBox="0 0 16 16" fill="none" xmlns="http://www.w3.org/2000/svg">
<path opacity="0.1" d="M2 0.5H14C14.3978 0.5 14.7794 0.658035 15.0607 0.93934C15.342 1.22064 15.5 1.60218 15.5 2V4.5H0.5V2C0.5 1.60218 0.658035 1.22064 0.93934 0.93934C1.22064 0.658035 1.60218 0.5 2 0.5V0.5Z" fill="black"/>
<path d="M2 0H14C14.5304 0 15.0391 0.210714 15.4142 0.585786C15.7893 0.960859 16 1.46957 16 2V14C16 14.5304 15.7893 15.0391 15.4142 15.4142C15.0391 15.7893 14.5304 16 14 16H2C1.46957 16 0.960859 15.7893 0.585786 15.4142C0.210714 15.0391 0 14.5304 0 14V2C0 1.46957 0.210714 0.960859 0.585786 0.585786C0.960859 0.210714 1.46957 0 2 0V0ZM2 1C1.73478 1 1.48043 1.10536 1.29289 1.29289C1.10536 1.48043 1 1.73478 1 2V14C1 14.2652 1.10536 14.5196 1.29289 14.7071C1.48043 14.8946 1.73478 15 2 15H14C14.2652 15 14.5196 14.8946 14.7071 14.7071C14.8946 14.5196 15 14.2652 15 14V2C15 1.73478 14.8946 1.48043 14.7071 1.29289C14.5196 1.10536 14.2652 1 14 1H2ZM3 4H13C13.1326 4 13.2598 4.05268 13.3536 4.14645C13.4473 4.24021 13.5 4.36739 13.5 4.5C13.5 4.63261 13.4473 4.75979 13.3536 4.85355C13.2598 4.94732 13.1326 5 13 5H3C2.86739 5 2.74021 4.94732 2.64645 4.85355C2.55268 4.75979 2.5 4.63261 2.5 4.5C2.5 4.36739 2.55268 4.24021 2.64645 4.14645C2.74021 4.05268 2.86739 4 3 4V4Z" fill="black"/>
<path d="M7.72412 13H3.53174V12.4155L5.74658 9.95459C6.07471 9.58252 6.30029 9.28076 6.42334 9.04932C6.54932 8.81494 6.6123 8.57324 6.6123 8.32422C6.6123 7.99023 6.51123 7.71631 6.30908 7.50244C6.10693 7.28857 5.8374 7.18164 5.50049 7.18164C5.09619 7.18164 4.78125 7.29736 4.55566 7.52881C4.33301 7.75732 4.22168 8.07666 4.22168 8.48682H3.40869C3.40869 7.89795 3.59766 7.42188 3.97559 7.05859C4.35645 6.69531 4.86475 6.51367 5.50049 6.51367C6.09521 6.51367 6.56543 6.67041 6.91113 6.98389C7.25684 7.29443 7.42969 7.70898 7.42969 8.22754C7.42969 8.85742 7.02832 9.60742 6.22559 10.4775L4.51172 12.3364H7.72412V13ZM9.76758 9.40527H10.3784C10.7622 9.39941 11.064 9.29834 11.2837 9.10205C11.5034 8.90576 11.6133 8.64062 11.6133 8.30664C11.6133 7.55664 11.2397 7.18164 10.4927 7.18164C10.1411 7.18164 9.85986 7.28271 9.64893 7.48486C9.44092 7.68408 9.33691 7.94922 9.33691 8.28027H8.52393C8.52393 7.77344 8.7085 7.35303 9.07764 7.01904C9.44971 6.68213 9.92139 6.51367 10.4927 6.51367C11.0962 6.51367 11.5693 6.67334 11.9121 6.99268C12.2549 7.31201 12.4263 7.75586 12.4263 8.32422C12.4263 8.60254 12.3354 8.87207 12.1538 9.13281C11.9751 9.39355 11.7305 9.58838 11.4199 9.71729C11.7715 9.82861 12.0425 10.0132 12.2329 10.271C12.4263 10.5288 12.5229 10.8438 12.5229 11.2158C12.5229 11.79 12.3354 12.2456 11.9604 12.5825C11.5854 12.9194 11.0977 13.0879 10.4971 13.0879C9.89648 13.0879 9.40723 12.9253 9.0293 12.6001C8.6543 12.2749 8.4668 11.8457 8.4668 11.3125H9.28418C9.28418 11.6494 9.39404 11.9189 9.61377 12.1211C9.8335 12.3232 10.1279 12.4243 10.4971 12.4243C10.8896 12.4243 11.1899 12.3218 11.3979 12.1167C11.606 11.9116 11.71 11.6172 11.71 11.2334C11.71 10.8613 11.5957 10.5757 11.3672 10.3765C11.1387 10.1772 10.8091 10.0747 10.3784 10.0688H9.76758V9.40527Z" fill="black"/>
</svg>
